

<svg version="1.0" xmlns="http://www.w3.org/2000/svg"
 width="640.000000pt" height="640.000000pt" viewBox="0 0 640.000000 640.000000"
 preserveAspectRatio="xMidYMid meet">

<g transform="translate(0.000000,640.000000) scale(0.100000,-0.100000)"
fill="#000000" stroke="none">
<path d="M2980 6393 c-210 -20 -269 -27 -369 -44 -937 -162 -1767 -724 -2259
-1529 -126 -207 -252 -488 -321 -719 -31 -104 -31 -106 -29 -315 0 -116 3
-195 5 -176 2 19 17 100 33 180 191 954 812 1753 1705 2190 304 149 584 240
910 295 371 62 806 58 1160 -11 942 -183 1738 -746 2205 -1558 171 -298 301
-662 360 -1011 l18 -110 1 206 1 206 -35 115 c-205 678 -657 1288 -1260 1700
-424 291 -907 479 -1415 552 -212 31 -549 45 -710 29z"/>
<path d="M3055 6263 c-317 -14 -690 -91 -993 -204 -927 -347 -1632 -1097
-1906 -2030 -121 -412 -149 -896 -75 -1329 181 -1069 937 -1968 1986 -2361
564 -211 1220 -260 1813 -133 1276 272 2258 1285 2450 2529 110 715 -35 1429
-415 2045 -233 376 -610 753 -995 995 -364 228 -779 382 -1217 450 -152 24
-439 47 -533 43 -25 -1 -76 -3 -115 -5z m226 -241 c39 -43 38 -84 0 -123 -23
-23 -39 -29 -70 -29 l-41 0 0 -45 c0 -41 -2 -45 -25 -45 l-25 0 0 141 0 141
66 -4 c60 -4 70 -7 95 -36z m-438 -4 c8 -29 1 -38 -31 -38 -52 0 -72 -11 -72
-37 0 -23 3 -25 45 -21 43 3 45 2 45 -24 0 -24 -4 -28 -27 -28 -40 0 -53 -12
-46 -39 5 -22 9 -23 60 -16 l54 7 -3 -29 c-3 -27 -6 -28 -76 -37 -40 -4 -75
-6 -77 -4 -6 5 -37 259 -33 263 3 3 96 19 144 24 7 0 14 -9 17 -21z m823 -7
c60 -36 81 -127 44 -188 -25 -41 -68 -63 -124 -63 -84 0 -149 88 -126 170 11
37 44 78 75 90 35 15 99 11 131 -9z m287 -47 c12 -4 11 -19 -10 -101 -13 -52
-22 -100 -20 -106 2 -6 23 -16 48 -22 38 -10 44 -15 41 -35 -1 -13 -4 -25 -5
-26 -4 -4 -147 33 -153 39 -3 2 9 61 27 131 31 124 37 134 72 120z m-1450 -52
c26 -26 31 -41 35 -89 3 -48 0 -63 -18 -86 -26 -33 -62 -53 -112 -62 -36 -7
-37 -6 -47 32 -6 21 -21 79 -35 130 l-24 91 36 11 c21 5 59 9 85 7 39 -3 55
-10 80 -34z m1773 -56 c3 -8 -16 -68 -42 -134 -46 -119 -47 -120 -71 -109 -15
7 -22 16 -18 26 64 177 89 231 107 231 10 0 21 -6 24 -14z m-2237 -72 l24 -17
-24 -18 c-18 -13 -27 -15 -37 -7 -10 8 -17 7 -30 -5 -25 -25 -1 -42 59 -42 41
0 55 -5 70 -24 45 -55 5 -131 -69 -131 -48 0 -86 32 -55 46 10 4 31 8 48 9 21
0 31 6 33 19 5 25 -13 35 -57 29 -53 -7 -91 25 -91 77 0 67 73 103 129 64z
m2522 -55 c41 -38 40 -89 -1 -131 -26 -25 -36 -29 -68 -25 -20 3 -46 8 -57 11
-17 6 -24 0 -38 -29 -15 -31 -20 -34 -37 -25 -11 6 -20 15 -20 21 0 6 24 62
54 124 l55 114 41 -16 c23 -9 55 -29 71 -44z m-2774 -142 c29 -32 33 -43 33
-91 0 -39 -6 -60 -21 -80 -82 -104 -249 -53 -249 77 0 87 60 141 149 134 47
-3 59 -9 88 -40z m3012 -127 c-10 -74 -19 -141 -19 -147 0 -10 -6 -10 -25 -1
-18 8 -25 19 -25 39 0 38 -62 79 -92 60 -16 -10 -24 -9 -45 4 l-25 17 123 83
c68 45 125 82 126 81 1 -1 -7 -62 -18 -136z m356 -123 c25 -36 19 -85 -14
-118 -38 -38 -87 -39 -129 -4 l-30 25 -25 -33 c-25 -32 -25 -32 -45 -12 -20
20 -20 20 65 122 l86 102 39 -30 c21 -17 45 -40 53 -52z m-3770 53 c11 -18
-14 -50 -37 -47 -15 1 -23 -4 -26 -17 -6 -31 11 -38 56 -22 94 33 160 -49 98
-121 -19 -22 -32 -28 -64 -28 -23 0 -44 3 -47 7 -13 13 16 47 42 50 21 2 29 9
31 27 4 26 10 25 -90 6 -31 -6 -40 -4 -62 18 -53 53 -17 137 58 137 19 0 38
-4 41 -10z m4002 -262 c57 -56 63 -71 36 -87 -14 -8 -26 -2 -55 26 -37 36 -38
36 -58 18 l-20 -19 30 -31 c28 -29 29 -32 13 -48 -16 -16 -19 -15 -48 13 l-31
30 -19 -20 c-18 -20 -18 -21 20 -60 32 -33 36 -42 25 -55 -20 -24 -32 -19 -90
40 l-54 55 94 95 c52 52 97 95 99 95 3 0 29 -23 58 -52z m-4098 -79 l24 -9
-23 -20 c-15 -13 -31 -18 -43 -14 -13 4 -29 -4 -52 -26 -27 -26 -33 -38 -28
-61 4 -21 0 -30 -15 -38 -19 -10 -22 -5 -48 62 -15 39 -37 99 -50 131 -13 33
-24 63 -24 67 0 4 53 -13 118 -38 64 -25 128 -49 141 -54z m-325 -194 c41 -74
61 -121 53 -122 -6 -2 -71 12 -144 30 l-132 32 17 23 18 23 77 -19 c42 -11 77
-18 77 -17 0 2 -16 31 -35 64 -19 32 -35 64 -35 70 0 18 24 51 31 43 4 -4 36
-61 73 -127z m4613 45 c11 -17 5 -25 -72 -81 -47 -34 -85 -64 -85 -68 0 -3 14
-24 30 -45 23 -30 27 -42 19 -53 -6 -7 -17 -13 -25 -13 -14 0 -109 118 -102
126 20 20 205 154 213 154 6 0 16 -9 22 -20z m-4766 -971 c72 -34 134 -96 168
-168 23 -49 26 -68 26 -161 0 -95 -3 -110 -28 -158 -64 -121 -151 -180 -285
-191 l-77 -6 -3 -123 -3 -122 -165 2 -164 3 0 473 c0 259 0 475 0 478 0 3 107
4 238 2 232 -3 238 -4 293 -29z m771 20 c70 -15 101 -32 158 -85 86 -81 126
-215 100 -339 -17 -81 -42 -128 -100 -183 l-49 -47 66 -108 c53 -88 63 -110
53 -123 -17 -19 -110 -87 -114 -83 -2 2 -38 64 -81 137 l-77 132 -44 0 -44 0
0 -125 0 -125 -170 0 -170 0 0 480 0 480 210 0 c116 0 233 -5 262 -11z m1018
-74 l0 -85 -155 0 -155 0 0 -95 0 -95 115 0 115 0 0 -85 0 -85 -115 0 -115 0
0 -130 0 -130 165 0 165 0 0 -85 0 -85 -335 0 -335 0 0 480 0 480 325 0 325 0
0 -85z m472 2 c106 -237 133 -295 137 -292 2 3 41 87 87 187 l83 183 153 0
153 0 3 -477 2 -478 -170 0 -170 0 0 250 c0 138 -3 250 -7 250 -5 0 -60 -117
-123 -260 -63 -143 -118 -256 -121 -252 -4 4 -58 121 -120 261 l-114 254 -5
-249 -5 -249 -72 -3 -73 -3 0 481 0 480 163 0 162 -1 37 -82z m1078 -397 l0
-480 -165 0 -165 0 0 480 0 480 165 0 165 0 0 -480z m470 75 l0 -405 45 0 c57
0 112 27 155 76 64 73 64 78 68 422 l4 312 69 0 69 0 0 -318 c0 -344 -4 -379
-56 -468 -31 -53 -118 -135 -175 -165 -38 -21 -58 -24 -149 -24 -90 0 -111 3
-147 23 -92 49 -155 127 -192 239 -20 58 -21 85 -21 388 l0 325 165 0 165 0 0
-405z m957 216 c46 -102 85 -186 87 -188 1 -2 41 81 88 184 l85 188 152 3 151
3 0 -481 0 -480 -167 2 -168 3 -5 249 -5 249 -114 -256 c-63 -141 -117 -257
-121 -257 -4 0 -61 119 -126 265 l-119 265 -3 -260 -2 -260 -70 0 -70 0 0 480
0 480 162 -2 162 -3 83 -184z m-3242 -1062 c102 -48 152 -175 109 -277 -36
-86 -109 -132 -225 -139 l-78 -6 -3 -91 -3 -91 -45 0 c-88 -1 -80 -31 -80 316
l0 309 140 0 c122 0 146 -3 185 -21z m545 -122 c35 -78 99 -217 142 -309 43
-92 78 -170 78 -173 0 -3 -31 -5 -68 -5 l-69 0 -23 50 -23 50 -110 0 -109 0
-21 -50 -21 -50 -69 0 c-61 0 -69 2 -64 18 10 34 280 612 286 612 3 -1 35 -65
71 -143z m1210 8 l5 -130 79 133 78 132 75 0 c41 0 72 -3 70 -7 -2 -5 -45 -77
-96 -161 l-91 -154 101 -141 c56 -78 107 -148 112 -154 7 -10 -8 -13 -70 -13
l-79 0 -89 125 -90 126 -5 -123 -5 -123 -62 -3 -63 -3 0 316 0 316 63 -3 62
-3 5 -130z m-472 107 c26 -10 60 -29 75 -42 50 -44 24 -90 -30 -52 -42 28 -90
42 -150 42 -68 0 -110 -18 -158 -66 -122 -124 -105 -322 34 -398 53 -28 96
-32 151 -12 35 13 36 17 24 68 -6 25 -4 27 37 32 119 14 210 15 215 2 3 -7
-18 -63 -47 -124 -54 -117 -72 -133 -101 -91 -13 20 -17 21 -73 9 -81 -17
-156 -6 -227 32 -65 34 -107 81 -140 155 -31 67 -32 208 -2 273 68 149 247
227 392 172z m1752 -1117 c-18 -19 -21 -28 -12 -37 9 -9 16 -7 30 5 11 10 26
15 35 11 15 -5 15 -8 0 -30 -13 -20 -13 -28 -4 -37 10 -9 18 -5 36 18 19 23
27 27 36 18 9 -9 8 -17 -4 -35 -26 -37 -44 -58 -49 -58 -14 0 -133 104 -132
115 1 7 14 29 30 49 25 31 30 34 43 21 13 -13 12 -18 -9 -40z m-4305 5 c21 -8
55 -60 55 -85 0 -15 -37 -2 -45 17 -15 33 -39 44 -72 32 -40 -13 -44 -64 -8
-92 34 -27 25 -56 -12 -39 -56 25 -69 103 -24 148 31 30 61 36 106 19z m4190
-139 c-14 -14 -10 -20 37 -68 41 -41 50 -55 40 -65 -10 -10 -23 -1 -62 37 -46
45 -52 48 -71 36 -15 -9 -24 -10 -32 -2 -8 8 1 24 33 56 34 35 47 42 57 33 12
-9 12 -14 -2 -27z m-4049 -12 c3 -6 -13 -30 -36 -54 -30 -30 -41 -49 -38 -66
5 -38 38 -34 86 11 46 43 57 47 68 28 9 -15 -76 -95 -111 -104 -38 -9 -79 23
-83 66 -3 28 4 40 44 81 51 52 59 56 70 38z m3949 -161 l57 -63 -72 -5 -71 -5
30 -29 c17 -17 31 -35 31 -42 0 -33 -26 -20 -79 38 l-59 63 71 5 71 5 -33 37
c-29 34 -34 58 -11 58 4 0 34 -28 65 -62z m-3827 -79 c-48 -55 -64 -67 -75
-58 -16 14 -12 20 61 96 38 40 53 50 63 42 10 -9 -1 -26 -49 -80z m181 -35
c29 -37 27 -77 -6 -114 -20 -22 -37 -31 -61 -32 -36 -1 -88 31 -86 54 1 8 23
42 49 76 52 67 63 69 104 16z m3427 14 c4 -6 -4 -21 -20 -35 -23 -20 -26 -26
-16 -39 11 -13 15 -12 32 3 14 12 21 14 30 5 9 -9 7 -16 -6 -31 -11 -12 -16
-27 -12 -36 5 -15 10 -14 37 6 23 16 33 19 42 10 9 -9 2 -20 -28 -46 -22 -19
-42 -34 -45 -34 -3 0 -29 32 -59 71 l-55 71 40 33 c43 37 49 39 60 22z m-123
-178 c44 -63 52 -90 27 -90 -5 0 -31 32 -59 72 -37 52 -48 74 -38 80 19 12 19
12 70 -62z m-3144 -30 c-14 -110 -17 -120 -34 -114 -8 4 -15 14 -15 24 0 22
-44 52 -64 44 -8 -3 -22 -2 -31 3 -13 8 1 20 67 65 46 30 84 55 85 54 1 -1 -2
-35 -8 -76z m3003 -17 c14 -16 33 -34 42 -41 9 -7 16 -26 16 -42 0 -24 -8 -35
-40 -56 -22 -15 -42 -25 -44 -23 -2 2 -22 37 -46 78 l-43 74 23 19 c31 25 61
22 92 -9z m-2801 -127 c3 -4 14 12 24 34 17 38 37 51 49 31 3 -5 -14 -44 -38
-86 -24 -42 -46 -73 -49 -68 -3 4 -13 36 -22 71 l-18 63 -25 -44 c-16 -29 -29
-44 -38 -40 -21 8 -18 17 28 101 l42 77 21 -67 c11 -37 23 -69 26 -72z m2675
-88 c-18 -13 -26 -9 -38 17 -14 31 -28 23 -28 -16 0 -33 -9 -35 -50 -14 -34
18 -36 15 -15 -25 13 -25 13 -29 -2 -34 -9 -4 -17 -5 -18 -4 -12 14 -75 151
-71 155 3 3 30 -9 60 -26 31 -17 58 -31 60 -31 2 0 7 21 11 48 14 101 14 101
60 15 27 -51 38 -81 31 -85z m-2469 92 c42 -25 56 -54 49 -96 -14 -70 -107
-98 -165 -48 -7 7 63 164 73 164 6 0 25 -9 43 -20z m2223 -203 c0 -5 -16 -6
-35 -3 -38 7 -75 -7 -75 -28 0 -12 -28 -31 -36 -24 -1 2 0 47 3 101 l6 98 69
-68 c37 -37 68 -71 68 -76z m-1957 95 c71 -63 15 -175 -79 -158 -82 16 -100
130 -27 170 33 19 78 13 106 -12z m302 -82 c0 -11 -9 -14 -34 -12 -19 1 -38
-3 -42 -10 -10 -17 -2 -28 22 -28 13 0 19 -7 19 -21 0 -18 -4 -20 -30 -14 -25
6 -30 4 -30 -13 0 -15 9 -21 34 -26 26 -5 33 -11 29 -25 -4 -16 -9 -17 -56 -6
-29 6 -52 16 -52 21 0 5 8 46 18 90 l18 82 52 -12 c34 -7 52 -17 52 -26z
m1306 11 c49 -50 37 -121 -27 -147 -29 -12 -39 -12 -68 0 -40 17 -56 42 -56
88 1 81 93 117 151 59z m-1193 -20 c10 -6 11 -18 3 -52 -6 -24 -11 -56 -11
-71 0 -24 4 -28 30 -28 24 0 30 -4 30 -21 0 -20 -4 -21 -47 -14 -27 4 -51 10
-55 13 -7 8 22 182 31 182 3 0 12 -4 19 -9z m951 -63 c7 -40 15 -81 17 -90 4
-13 0 -18 -14 -18 -17 0 -22 11 -32 68 -6 37 -14 77 -17 90 -4 17 -1 22 14 22
17 0 22 -12 32 -72z m-152 18 c35 -31 39 -95 7 -127 -19 -18 -93 -43 -102 -34
-6 6 -29 175 -24 180 3 3 25 5 48 5 31 0 51 -7 71 -24z m-404 -84 c-4 -68 -10
-92 -19 -92 -10 0 -14 14 -14 43 -1 45 -3 44 -44 -17 -12 -19 -14 -18 -39 19
l-27 40 0 -38 c0 -30 -4 -37 -20 -37 -18 0 -20 6 -19 58 1 31 4 71 8 87 l7 30
38 -57 38 -57 22 27 c12 15 33 42 45 60 13 18 25 32 27 30 1 -2 0 -45 -3 -96z
m207 83 c0 -14 -6 -16 -50 -19 -8 -1 -16 -9 -18 -19 -3 -12 3 -17 21 -17 16 0
26 -7 30 -20 4 -17 0 -20 -24 -20 -22 0 -29 -5 -29 -19 0 -16 8 -20 38 -23 56
-5 40 -23 -23 -26 l-55 -3 0 91 0 90 55 0 c42 0 55 -3 55 -15z"/>
<path d="M3170 5961 c0 -38 2 -41 28 -41 40 0 54 13 50 46 -3 26 -7 29 -40 32
l-38 3 0 -40z"/>
<path d="M3539 5951 c-16 -16 -29 -39 -29 -50 0 -74 77 -115 133 -71 33 26 41
63 22 101 -29 54 -83 63 -126 20z"/>
<path d="M2383 5892 c-9 -6 -8 -25 7 -81 10 -40 21 -75 23 -78 9 -8 64 25 71
42 26 69 -46 152 -101 117z"/>
<path d="M4458 5681 c-15 -38 -15 -39 9 -50 67 -31 98 40 33 74 -27 14 -28 13
-42 -24z"/>
<path d="M1634 5556 c-54 -46 -30 -127 43 -142 27 -5 37 -1 63 24 39 39 39 74
1 113 -36 35 -70 37 -107 5z"/>
<path d="M4721 5471 c-24 -18 -24 -19 -4 -30 18 -9 22 -7 27 15 9 34 6 36 -23
15z"/>
<path d="M5042 5310 l-22 -28 26 -21 c20 -16 30 -18 46 -10 30 16 33 38 8 65
-13 13 -26 24 -29 23 -3 0 -16 -13 -29 -29z"/>
<path d="M1127 5030 c7 -28 18 -33 34 -14 10 13 10 17 -2 25 -24 15 -37 10
-32 -11z"/>
<path d="M617 3783 c-4 -3 -7 -87 -7 -185 l0 -178 48 0 c71 0 118 17 156 56
100 103 48 273 -92 303 -60 13 -96 14 -105 4z"/>
<path d="M1458 3784 c-5 -4 -8 -88 -8 -186 l0 -178 53 0 c58 0 121 25 154 61
73 80 51 224 -43 276 -42 23 -143 41 -156 27z"/>
<path d="M2140 2515 l0 -95 66 0 c59 0 68 3 95 29 31 32 36 64 17 106 -17 37
-57 55 -123 55 l-55 0 0 -95z"/>
<path d="M2778 2373 l-25 -58 49 -3 c28 -2 52 -1 55 2 5 5 -43 116 -50 116 -3
0 -16 -26 -29 -57z"/>
<path d="M1431 1121 c-17 -21 -31 -44 -31 -49 0 -20 40 -24 65 -8 28 19 34 66
11 85 -11 9 -20 4 -45 -28z"/>
<path d="M1611 961 c-10 -6 -10 -10 -1 -16 13 -8 24 -1 19 14 -3 6 -10 7 -18
2z"/>
<path d="M4612 929 c2 -6 8 -10 13 -10 5 0 11 4 13 10 2 6 -4 11 -13 11 -9 0
-15 -5 -13 -11z"/>
<path d="M4657 887 c-15 -10 -16 -15 -5 -30 12 -16 15 -16 33 -3 18 13 18 16
5 30 -13 13 -19 14 -33 3z"/>
<path d="M2024 754 c-14 -37 -15 -47 -4 -54 44 -27 95 51 58 88 -22 22 -36 13
-54 -34z"/>
<path d="M4190 671 c0 -11 4 -21 9 -21 18 0 21 18 6 30 -13 10 -15 9 -15 -9z"/>
<path d="M2247 692 c-19 -21 -21 -45 -7 -73 21 -39 100 -12 100 34 0 23 -35
57 -58 57 -11 0 -26 -8 -35 -18z"/>
<path d="M3845 616 c-20 -29 -13 -61 17 -77 28 -15 63 -4 75 24 28 60 -56 108
-92 53z"/>
<path d="M3480 548 c0 -52 11 -78 31 -78 19 0 39 27 39 52 0 21 -22 45 -47 53
-21 6 -23 3 -23 -27z"/>
<path d="M1 2612 l-1 -213 54 -162 c160 -485 413 -895 776 -1257 539 -540
1216 -863 2005 -956 285 -33 677 -19 980 37 1189 219 2153 1043 2526 2161 l59
176 -1 214 -1 213 -24 -140 c-51 -296 -133 -543 -274 -830 -96 -195 -218 -389
-350 -555 -104 -132 -375 -404 -500 -502 -508 -399 -1085 -632 -1725 -699
-142 -14 -508 -14 -650 0 -763 79 -1441 398 -1971 926 -191 190 -286 305 -420
506 -230 347 -384 737 -460 1164 l-22 130 -1 -213z"/>
</g>
</svg>
